<svg xmlns="http://www.w3.org/2000/svg" xmlns:xlink="http://www.w3.org/1999/xlink" width="500" zoomAndPan="magnify" viewBox="0 0 375 374.999991" height="500" preserveAspectRatio="xMidYMid meet" version="1.0"><path fill="#f000ff" d="M 199.5625 178.425781 C 199.5625 179.132812 199.488281 179.835938 199.34375 180.53125 C 199.199219 181.222656 198.988281 181.898438 198.707031 182.550781 C 198.425781 183.203125 198.085938 183.824219 197.679688 184.414062 C 197.273438 185 196.8125 185.542969 196.296875 186.042969 C 195.78125 186.542969 195.21875 186.988281 194.613281 187.378906 C 194.003906 187.773438 193.367188 188.101562 192.691406 188.371094 C 192.019531 188.640625 191.324219 188.84375 190.609375 188.980469 C 189.898438 189.117188 189.175781 189.183594 188.449219 189.183594 C 187.71875 189.179688 187 189.109375 186.285156 188.96875 C 185.570312 188.832031 184.878906 188.625 184.207031 188.351562 C 183.535156 188.078125 182.898438 187.746094 182.292969 187.351562 C 181.6875 186.957031 181.128906 186.507812 180.617188 186.003906 C 180.101562 185.503906 179.644531 184.957031 179.242188 184.367188 C 178.839844 183.777344 178.5 183.15625 178.222656 182.5 C 177.945312 181.847656 177.734375 181.171875 177.597656 180.476562 C 177.457031 179.78125 177.386719 179.082031 177.386719 178.371094 C 177.390625 177.664062 177.464844 176.964844 177.605469 176.269531 C 177.75 175.574219 177.960938 174.902344 178.242188 174.246094 C 178.523438 173.59375 178.867188 172.972656 179.273438 172.386719 C 179.679688 171.796875 180.140625 171.253906 180.65625 170.753906 C 181.171875 170.257812 181.734375 169.808594 182.339844 169.417969 C 182.945312 169.027344 183.585938 168.695312 184.257812 168.425781 C 184.933594 168.15625 185.625 167.953125 186.339844 167.816406 C 187.054688 167.683594 187.777344 167.613281 188.503906 167.617188 C 189.230469 167.617188 189.953125 167.6875 190.667969 167.828125 C 191.378906 167.96875 192.074219 168.175781 192.746094 168.449219 C 193.417969 168.71875 194.054688 169.054688 194.660156 169.449219 C 195.261719 169.84375 195.820312 170.292969 196.335938 170.792969 C 196.847656 171.296875 197.308594 171.839844 197.710938 172.429688 C 198.113281 173.019531 198.453125 173.644531 198.730469 174.296875 C 199.007812 174.953125 199.214844 175.628906 199.355469 176.324219 C 199.496094 177.015625 199.566406 177.71875 199.5625 178.425781 Z M 199.5625 178.425781 " fill-opacity="1" fill-rule="nonzero"/><path fill="#f000ff" d="M 173.5625 0 L 176.183594 25.414062 L 188.230469 28.792969 L 200.375 25.472656 L 203.128906 0.0742188 Z M 197.269531 8.269531 L 183.117188 8.234375 L 183.425781 11.40625 L 196.945312 11.4375 L 195.875 20.960938 L 188.332031 22.675781 L 188.332031 22.695312 L 188.246094 22.695312 L 180.652344 20.925781 L 180.203125 16.058594 L 183.875 16.066406 L 184.136719 18.511719 L 188.253906 19.453125 L 192.390625 18.53125 L 192.863281 14.542969 L 180.015625 14.511719 L 179.054688 5.164062 L 197.617188 5.207031 Z M 197.269531 8.269531 " fill-opacity="1" fill-rule="nonzero"/><path fill="#f000ff" d="M 270.957031 28.761719 L 273.578125 54.171875 L 285.664062 57.554688 L 297.769531 54.234375 L 300.523438 28.835938 Z M 295.050781 33.957031 L 294.671875 36.992188 L 285.789062 40.132812 L 285.765625 40.140625 L 294.351562 40.160156 L 293.339844 49.570312 L 285.773438 51.390625 L 278.171875 49.5 L 277.691406 44.753906 L 281.457031 44.765625 L 281.695312 47.222656 L 285.746094 48.085938 L 289.957031 47.109375 L 290.253906 43.15625 L 277.449219 43.089844 L 277.449219 43.085938 L 277.433594 43.089844 L 277.164062 40.117188 L 285.804688 37.144531 L 286.304688 36.972656 L 276.84375 36.949219 L 276.402344 33.910156 Z M 295.050781 33.957031 " fill-opacity="1" fill-rule="nonzero"/><path fill="#f000ff" d="M 355.632812 106.972656 C 357.101562 106.976562 358.511719 106.476562 359.554688 105.578125 C 360.59375 104.683594 361.183594 103.464844 361.1875 102.195312 C 361.1875 100.921875 360.609375 99.703125 359.570312 98.800781 C 358.535156 97.898438 357.125 97.390625 355.65625 97.386719 L 344.570312 97.359375 C 343.101562 97.355469 341.691406 97.855469 340.648438 98.753906 C 339.609375 99.648438 339.023438 100.867188 339.019531 102.136719 C 339.015625 103.40625 339.59375 104.625 340.632812 105.527344 C 341.667969 106.429688 343.078125 106.9375 344.546875 106.941406 C 343.074219 106.9375 341.664062 107.4375 340.621094 108.335938 C 339.582031 109.230469 338.992188 110.449219 338.992188 111.71875 C 338.988281 112.992188 339.566406 114.210938 340.605469 115.113281 C 341.640625 116.015625 343.050781 116.523438 344.519531 116.527344 C 343.425781 116.523438 342.351562 116.800781 341.4375 117.328125 C 340.523438 117.851562 339.8125 118.597656 339.390625 119.472656 C 338.96875 120.347656 338.855469 121.308594 339.066406 122.238281 C 339.277344 123.171875 339.800781 124.027344 340.574219 124.699219 C 341.347656 125.371094 342.332031 125.832031 343.410156 126.019531 C 344.484375 126.207031 345.597656 126.117188 346.613281 125.757812 C 347.625 125.394531 348.492188 124.785156 349.105469 123.996094 C 349.714844 123.210938 350.042969 122.285156 350.046875 121.335938 L 350.085938 106.960938 Z M 355.632812 106.972656 C 354.535156 106.96875 353.464844 107.25 352.550781 107.773438 C 351.640625 108.296875 350.925781 109.042969 350.503906 109.917969 C 350.085938 110.792969 349.972656 111.753906 350.183594 112.6875 C 350.394531 113.617188 350.917969 114.46875 351.691406 115.140625 C 352.464844 115.8125 353.453125 116.273438 354.527344 116.460938 C 355.601562 116.648438 356.714844 116.554688 357.726562 116.195312 C 358.738281 115.835938 359.605469 115.222656 360.21875 114.4375 C 360.828125 113.652344 361.15625 112.726562 361.15625 111.777344 C 361.160156 110.507812 360.582031 109.289062 359.542969 108.386719 C 358.507812 107.484375 357.101562 106.976562 355.632812 106.972656 Z M 355.632812 106.972656 " fill-opacity="1" fill-rule="nonzero"/><path fill="#f000ff" d="M 13.882812 242.527344 C 13.855469 242.59375 13.867188 242.5625 13.882812 242.527344 Z M 25.40625 237.34375 C 24.476562 237.34375 23.558594 237.617188 22.722656 238.148438 C 22.453125 237.433594 22.171875 236.808594 22.128906 236.34375 C 22.074219 235.796875 22.015625 235.472656 22.082031 234.828125 C 22.148438 234.179688 22.441406 233.265625 22.4375 233.199219 C 22.429688 233.132812 22.371094 232.804688 21.777344 232.796875 C 21.179688 232.789062 20.667969 232.941406 20.605469 233.148438 C 20.5 233.519531 20.417969 233.902344 20.359375 234.289062 C 20.25 234.992188 19.160156 237.492188 18.542969 238.796875 C 18.339844 238.285156 18.171875 237.835938 18.132812 237.476562 C 18.082031 236.933594 18.019531 236.609375 18.085938 235.960938 C 18.152344 235.316406 18.445312 234.398438 18.441406 234.332031 C 18.4375 234.265625 18.378906 233.9375 17.785156 233.929688 C 17.1875 233.921875 16.675781 234.078125 16.613281 234.28125 C 16.554688 234.484375 16.488281 234.964844 16.367188 235.425781 C 16.246094 235.886719 14.789062 240.050781 14.40625 241.132812 C 14.210938 241.683594 14.042969 242.128906 13.921875 242.425781 C 13.90625 242.476562 13.890625 242.503906 13.882812 242.527344 C 13.894531 242.5 13.90625 242.46875 13.90625 242.480469 C 13.800781 242.738281 13.742188 242.882812 13.742188 242.882812 L 13.742188 242.886719 C 13.664062 243.078125 13.574219 243.253906 13.535156 243.253906 C 13.503906 243.253906 13.445312 242.75 13.550781 242.058594 C 13.769531 240.613281 14.289062 238.359375 14.285156 238.28125 C 14.28125 238.242188 14.382812 237.851562 13.949219 237.640625 C 13.53125 237.441406 13.375 237.769531 13.339844 237.769531 C 13.300781 237.769531 13.273438 237.890625 13.273438 237.890625 C 13.273438 237.890625 13.746094 235.351562 12.386719 235.347656 C 11.535156 235.347656 10.351562 236.554688 9.765625 237.648438 C 9.398438 237.90625 8.609375 238.460938 7.777344 239.050781 C 7.457031 239.277344 7.128906 239.511719 6.816406 239.730469 C 6.792969 239.703125 6.777344 239.671875 6.753906 239.640625 C 5.105469 237.347656 2.058594 235.726562 2.195312 232.652344 C 2.242188 231.53125 2.550781 228.589844 8.085938 225.035156 C 12.621094 222.125 16.238281 222.933594 16.855469 224.722656 C 17.746094 227.269531 14.902344 232 10.199219 232.671875 C 8.40625 232.925781 7.464844 232.023438 7.230469 231.6875 C 6.988281 231.332031 6.949219 231.316406 6.859375 231.382812 C 6.707031 231.488281 6.800781 231.800781 6.855469 231.988281 C 6.992188 232.460938 7.570312 233.300781 8.550781 233.722656 C 9.414062 234.089844 11.515625 234.296875 14.058594 233.027344 C 16.914062 231.609375 19.148438 227.644531 18.503906 224.316406 C 17.851562 220.9375 13.535156 219.820312 9.441406 221.691406 C 7.007812 222.804688 4.371094 224.558594 2.46875 226.847656 C 0.214844 229.574219 -0.152344 231.953125 -0.0078125 232.945312 C 0.507812 236.476562 4.253906 238.785156 5.75 240.488281 C 5.675781 240.542969 5.605469 240.589844 5.542969 240.640625 C 4.789062 241.121094 1.925781 243.054688 1.203125 245.101562 C 0.390625 247.425781 1.328125 249.09375 1.945312 249.320312 C 3.875 250.023438 5.851562 248.773438 6.921875 246.722656 C 7.988281 244.671875 7.867188 241.988281 7.378906 240.761719 C 7.375 240.746094 7.367188 240.734375 7.363281 240.714844 C 7.554688 240.566406 7.753906 240.417969 7.953125 240.269531 C 8.335938 239.976562 8.710938 239.707031 9.042969 239.472656 C 8.855469 240.121094 8.71875 240.898438 8.648438 242.023438 C 8.558594 243.34375 8.976562 245.050781 9.519531 245.722656 C 9.757812 246.015625 10.050781 246.023438 10.230469 246.023438 C 10.867188 246.027344 11.15625 245.34375 11.476562 244.53125 C 11.871094 243.535156 12.21875 242.378906 12.21875 242.378906 C 12.21875 242.378906 11.777344 245.507812 12.964844 245.507812 C 13.398438 245.511719 13.835938 244.785156 14.03125 244.417969 L 14.03125 244.421875 C 14.03125 244.421875 14.039062 244.398438 14.0625 244.351562 C 14.109375 244.261719 14.132812 244.207031 14.132812 244.207031 L 14.132812 244.1875 C 14.308594 243.800781 14.695312 242.90625 15.277344 241.4375 C 16.027344 239.53125 16.75 237.15625 16.75 237.15625 C 16.820312 237.679688 16.914062 238.195312 17.035156 238.703125 C 17.160156 239.273438 17.433594 239.894531 17.648438 240.5 C 17.472656 240.8125 17.363281 240.992188 17.363281 240.992188 C 17.363281 240.996094 17.367188 241 17.371094 241.003906 C 17.230469 241.242188 17.070312 241.5 16.910156 241.75 C 16.316406 242.660156 15.613281 243.699219 15.519531 244 C 15.40625 244.355469 15.433594 244.617188 15.644531 244.820312 C 15.800781 244.976562 16.078125 245 16.371094 244.972656 C 16.902344 244.925781 17.277344 244.757812 17.457031 244.652344 C 17.789062 244.5 18.101562 244.285156 18.390625 244.019531 C 18.96875 243.46875 19.324219 242.679688 19.292969 241.636719 C 19.277344 241.0625 19.132812 240.488281 18.960938 239.949219 C 19.011719 239.851562 19.066406 239.75 19.117188 239.648438 C 20.035156 237.917969 20.75 236.019531 20.75 236.019531 C 20.816406 236.542969 20.910156 237.058594 21.03125 237.566406 C 21.140625 238.054688 21.355469 238.585938 21.554688 239.109375 C 20.691406 240.011719 20.15625 241.058594 19.972656 241.746094 C 19.625 243.019531 19.894531 243.597656 20.394531 243.730469 C 20.621094 243.789062 20.945312 243.652344 21.1875 243.523438 C 21.542969 243.367188 21.878906 243.144531 22.183594 242.859375 C 22.765625 242.308594 23.324219 241.539062 23.289062 240.492188 C 23.277344 240.015625 23.175781 239.542969 23.042969 239.085938 C 23.769531 238.695312 24.714844 238.480469 25.914062 238.664062 C 28.484375 239.058594 28.984375 241.144531 28.882812 242.011719 C 28.785156 242.882812 28.242188 243.363281 28.0625 243.507812 C 27.882812 243.652344 27.828125 243.707031 27.839844 243.8125 C 27.863281 243.96875 27.945312 243.964844 28.097656 243.929688 C 28.3125 243.878906 29.449219 243.226562 29.503906 241.613281 C 29.582031 239.578125 28.078125 237.332031 25.402344 237.34375 Z M 5.554688 245.964844 C 4.703125 247.167969 3.511719 247.617188 3 247.234375 C 2.449219 246.816406 2.671875 245.046875 3.722656 243.765625 C 4.363281 242.988281 5.1875 242.273438 5.734375 241.832031 C 5.859375 241.734375 6.039062 241.589844 6.261719 241.417969 C 6.296875 241.386719 6.316406 241.375 6.316406 241.375 C 6.359375 241.339844 6.402344 241.3125 6.449219 241.273438 C 6.828125 243.097656 6.457031 244.703125 5.554688 245.964844 Z M 11.777344 240.503906 C 11.480469 241.445312 10.847656 243.839844 10.472656 243.710938 C 10.148438 243.605469 9.953125 241.777344 10.417969 239.980469 C 10.648438 239.078125 11.140625 238 11.433594 237.582031 C 11.902344 236.90625 12.414062 236.691406 12.535156 236.960938 C 12.695312 237.3125 11.964844 239.917969 11.777344 240.503906 Z M 16.898438 243.691406 C 16.773438 243.777344 16.65625 243.828125 16.601562 243.789062 C 16.558594 243.757812 16.652344 243.644531 16.652344 243.644531 C 16.652344 243.644531 17.296875 242.753906 17.550781 242.347656 C 17.699219 242.105469 17.871094 241.824219 18.058594 241.515625 C 18.054688 241.542969 18.0625 241.574219 18.0625 241.609375 C 18.050781 242.683594 17.257812 243.40625 16.894531 243.691406 Z M 20.851562 242.535156 C 20.761719 242.449219 20.777344 242.167969 21.085938 241.292969 C 21.207031 240.953125 21.488281 240.378906 21.96875 239.828125 C 22.023438 240.039062 22.050781 240.253906 22.054688 240.476562 C 22.046875 241.824219 21.300781 242.324219 20.851562 242.535156 Z M 20.851562 242.535156 " fill-opacity="1" fill-rule="nonzero"/><path fill="#f000ff" d="M 335.152344 256.636719 L 335.074219 285.390625 L 364.640625 285.464844 L 364.714844 256.710938 Z M 351.183594 279.101562 C 351.175781 281.902344 349.480469 283.175781 347.019531 283.167969 C 344.796875 283.164062 343.511719 282.042969 342.855469 280.6875 L 345.121094 279.363281 C 345.558594 280.117188 345.949219 280.753906 346.90625 280.753906 C 347.820312 280.757812 348.398438 280.410156 348.402344 279.058594 L 348.429688 269.871094 L 351.207031 269.878906 Z M 357.742188 283.195312 C 355.164062 283.1875 353.496094 281.992188 352.691406 280.421875 L 354.957031 279.15625 C 355.546875 280.101562 356.324219 280.804688 357.691406 280.808594 C 358.839844 280.808594 359.582031 280.253906 359.582031 279.476562 C 359.585938 278.550781 358.832031 278.222656 357.5625 277.675781 L 356.867188 277.382812 C 354.863281 276.550781 353.539062 275.5 353.546875 273.300781 C 353.550781 271.273438 355.144531 269.734375 357.621094 269.742188 C 359.390625 269.746094 360.65625 270.347656 361.5625 271.914062 L 359.394531 273.257812 C 358.921875 272.425781 358.40625 272.097656 357.609375 272.097656 C 356.796875 272.09375 356.28125 272.59375 356.277344 273.25 C 356.277344 274.058594 356.789062 274.386719 357.984375 274.894531 L 358.675781 275.1875 C 361.035156 276.175781 362.359375 277.183594 362.355469 279.445312 C 362.347656 281.871094 360.378906 283.203125 357.742188 283.195312 Z M 357.742188 283.195312 " fill-opacity="1" fill-rule="nonzero"/><path fill="#f000ff" d="M 39.511719 303.042969 C 39.507812 303.164062 39.371094 303.257812 39.199219 303.257812 C 39.003906 303.273438 38.867188 303.179688 38.867188 303.042969 C 38.867188 302.925781 39.003906 302.828125 39.175781 302.828125 C 39.355469 302.8125 39.511719 302.90625 39.511719 303.042969 Z M 37.65625 302.773438 C 37.613281 302.890625 37.734375 303.027344 37.914062 303.066406 C 38.066406 303.125 38.246094 303.066406 38.28125 302.945312 C 38.316406 302.828125 38.207031 302.691406 38.027344 302.636719 C 37.871094 302.59375 37.699219 302.652344 37.65625 302.773438 Z M 40.292969 302.679688 C 40.117188 302.71875 40 302.832031 40.015625 302.96875 C 40.035156 303.085938 40.1875 303.164062 40.367188 303.125 C 40.539062 303.082031 40.660156 302.96875 40.644531 302.851562 C 40.625 302.738281 40.464844 302.660156 40.292969 302.679688 Z M 44.273438 279.902344 C 36.003906 279.882812 29.664062 286.128906 29.644531 294.375 C 29.625 300.96875 33.773438 306.621094 39.710938 308.621094 C 40.472656 308.761719 40.742188 308.292969 40.742188 307.90625 C 40.742188 307.535156 40.730469 305.503906 40.734375 304.253906 C 40.734375 304.253906 36.558594 305.136719 35.691406 302.46875 C 35.691406 302.46875 35.015625 300.738281 34.039062 300.289062 C 34.039062 300.289062 32.675781 299.351562 34.136719 299.375 C 34.136719 299.375 35.621094 299.496094 36.433594 300.914062 C 37.734375 303.210938 39.921875 302.558594 40.777344 302.167969 C 40.914062 301.214844 41.304688 300.558594 41.734375 300.167969 C 38.402344 299.789062 35.042969 299.300781 35.058594 293.578125 C 35.0625 291.945312 35.515625 291.125 36.472656 290.082031 C 36.320312 289.695312 35.816406 288.097656 36.640625 286.042969 C 37.886719 285.660156 40.746094 287.660156 40.746094 287.660156 C 41.941406 287.328125 43.222656 287.160156 44.492188 287.164062 C 45.761719 287.167969 47.042969 287.339844 48.234375 287.679688 C 48.234375 287.679688 51.105469 285.6875 52.351562 286.082031 C 53.164062 288.148438 52.652344 289.734375 52.496094 290.121094 C 53.445312 291.175781 54.027344 291.996094 54.023438 293.625 C 54.011719 299.363281 50.496094 299.8125 47.164062 300.179688 C 47.710938 300.652344 48.175781 301.542969 48.171875 302.941406 C 48.164062 304.945312 48.140625 307.425781 48.140625 307.910156 C 48.140625 308.296875 48.414062 308.769531 49.167969 308.632812 C 55.136719 306.675781 59.191406 301.042969 59.207031 294.449219 C 59.230469 286.199219 52.539062 279.921875 44.273438 279.902344 Z M 35.421875 300.386719 C 35.34375 300.449219 35.363281 300.585938 35.460938 300.699219 C 35.558594 300.792969 35.695312 300.835938 35.773438 300.757812 C 35.851562 300.699219 35.832031 300.5625 35.730469 300.449219 C 35.636719 300.351562 35.5 300.3125 35.421875 300.386719 Z M 34.777344 299.90625 C 34.738281 299.984375 34.796875 300.078125 34.914062 300.136719 C 35.011719 300.199219 35.128906 300.179688 35.171875 300.097656 C 35.214844 300.019531 35.15625 299.925781 35.035156 299.863281 C 34.917969 299.828125 34.820312 299.847656 34.777344 299.90625 Z M 36.703125 302.027344 C 36.609375 302.105469 36.644531 302.28125 36.78125 302.394531 C 36.917969 302.53125 37.089844 302.550781 37.167969 302.457031 C 37.246094 302.378906 37.210938 302.199219 37.09375 302.085938 C 36.960938 301.949219 36.78125 301.933594 36.703125 302.027344 Z M 36.027344 301.152344 C 35.933594 301.210938 35.933594 301.363281 36.027344 301.503906 C 36.121094 301.640625 36.28125 301.699219 36.359375 301.640625 C 36.457031 301.5625 36.457031 301.40625 36.359375 301.269531 C 36.277344 301.132812 36.125 301.074219 36.027344 301.152344 Z M 36.027344 301.152344 " fill-opacity="1" fill-rule="nonzero"/><path fill="#f000ff" d="M 179.597656 365.101562 C 182.800781 365.320312 183.484375 365.246094 183.484375 365.875 C 183.480469 367.160156 179.15625 367.152344 179.160156 365.964844 C 179.160156 365.636719 179.378906 365.359375 179.597656 365.101562 Z M 181.460938 357.617188 C 179.328125 357.613281 179.226562 360.46875 181.402344 360.472656 C 183.546875 360.476562 183.503906 357.625 181.460938 357.617188 Z M 202.566406 348.839844 L 202.507812 371.433594 C 202.503906 372.25 202.167969 373.03125 201.574219 373.609375 C 200.976562 374.183594 200.171875 374.507812 199.332031 374.503906 L 176.101562 374.449219 C 175.261719 374.445312 174.457031 374.121094 173.863281 373.539062 C 173.269531 372.960938 172.941406 372.175781 172.941406 371.359375 L 173 348.765625 C 173.003906 347.949219 173.339844 347.164062 173.933594 346.589844 C 174.53125 346.011719 175.335938 345.691406 176.175781 345.691406 L 199.40625 345.75 C 200.246094 345.75 201.050781 346.078125 201.644531 346.65625 C 202.234375 347.238281 202.566406 348.023438 202.566406 348.839844 Z M 187.574219 353.25 C 187.570312 354.179688 188.121094 354.71875 189.078125 354.722656 C 190.050781 354.726562 190.605469 354.1875 190.609375 353.257812 C 190.609375 352.328125 190.058594 351.824219 189.085938 351.820312 C 188.132812 351.820312 187.574219 352.320312 187.574219 353.25 Z M 186.125 356.179688 L 182.855469 356.171875 C 181.207031 355.746094 177.472656 355.847656 177.464844 359.160156 C 177.460938 360.367188 178.082031 361.214844 178.902344 361.609375 C 177.863281 362.527344 177.371094 362.960938 177.371094 363.578125 C 177.367188 364.019531 177.550781 364.425781 178.105469 364.65625 C 177.515625 365.191406 177.179688 365.582031 177.175781 366.316406 C 177.175781 367.605469 178.328125 368.355469 181.363281 368.363281 C 184.28125 368.371094 185.980469 367.316406 185.984375 365.4375 C 185.988281 363.085938 184.125 363.167969 179.734375 362.894531 L 180.292969 362.035156 C 181.414062 362.34375 185.1875 362.449219 185.195312 359.324219 C 185.195312 358.574219 184.878906 358.050781 184.578125 357.675781 L 186.121094 357.566406 Z M 191.671875 363.242188 L 190.816406 363.128906 C 190.5625 363.09375 190.546875 363.0625 190.546875 362.800781 L 190.566406 356.03125 L 187.09375 356.023438 L 186.90625 357.34375 C 187.945312 357.703125 188.027344 357.65625 188.027344 357.996094 L 188.015625 362.796875 C 188.011719 363.15625 187.992188 363.089844 186.890625 363.234375 L 186.886719 364.519531 L 191.667969 364.53125 Z M 198.300781 363.910156 L 197.851562 362.476562 C 195.148438 363.453125 195.359375 361.671875 195.359375 361.394531 L 195.367188 357.496094 L 197.867188 357.503906 L 197.871094 355.871094 L 195.507812 355.867188 C 195.316406 355.867188 195.375 356.027344 195.378906 353.386719 L 193.785156 353.382812 C 193.597656 355.160156 193.007812 355.875 191.535156 356.035156 L 191.53125 357.488281 C 192.882812 357.492188 192.839844 357.4375 192.839844 357.65625 L 192.828125 361.925781 C 192.824219 363.769531 193.574219 364.554688 195.570312 364.558594 C 196.523438 364.5625 197.582031 364.253906 198.300781 363.910156 Z M 198.300781 363.910156 " fill-opacity="1" fill-rule="nonzero"/><path fill="#f000ff" d="M 194.835938 231.285156 C 195.597656 230.917969 196.65625 230.597656 196.65625 230.597656 C 196.65625 230.597656 193.648438 230.984375 190.65625 231.160156 C 186.996094 231.375 183.066406 231.417969 181.09375 231.230469 C 176.421875 230.792969 183.65625 229.574219 183.65625 229.574219 C 183.65625 229.574219 180.851562 229.441406 177.394531 230.621094 C 173.316406 232.019531 187.496094 232.660156 194.835938 231.285156 Z M 188.203125 229.519531 C 186.726562 227.167969 181.746094 225.101562 188.203125 221.484375 C 196.253906 216.980469 192.125 214.046875 192.125 214.046875 C 193.796875 218.703125 186.25 220.113281 183.523438 223.007812 C 181.667969 224.984375 184.433594 227.105469 188.203125 229.519531 Z M 197.105469 219.8125 C 197.113281 219.8125 183.492188 222.222656 189.996094 227.535156 C 191.914062 229.101562 189.492188 230.511719 189.492188 230.511719 C 189.492188 230.511719 194.363281 228.726562 192.125 226.492188 C 190.035156 224.410156 188.433594 223.375 197.105469 219.8125 Z M 196.632812 234.714844 C 196.589844 234.765625 196.539062 234.8125 196.476562 234.855469 C 206.445312 233 202.777344 228.308594 198.015625 229.496094 C 197.757812 229.5625 197.535156 229.683594 197.378906 229.84375 C 197.65625 229.773438 197.941406 229.71875 198.230469 229.679688 C 200.640625 229.320312 204.097656 231.964844 196.632812 234.714844 Z M 200.296875 238.144531 C 200.296875 238.144531 201.421875 238.800781 199.0625 239.3125 C 194.5625 240.277344 180.351562 240.570312 176.402344 239.351562 C 174.980469 238.917969 177.648438 238.304688 178.488281 238.179688 C 179.355469 238.046875 179.863281 238.070312 179.863281 238.070312 C 178.285156 237.28125 169.660156 239.617188 175.480469 240.285156 C 191.347656 242.113281 204.414062 239.460938 200.296875 238.144531 Z M 182.925781 235.867188 C 176.8125 237.078125 186.648438 239.578125 194.433594 237.214844 C 193.671875 237.003906 192.941406 236.75 192.242188 236.453125 C 188.769531 236.921875 187.160156 236.957031 184.003906 236.703125 C 181.402344 236.492188 182.925781 235.867188 182.925781 235.867188 Z M 196.894531 241.21875 C 190.78125 242.035156 183.238281 241.941406 178.769531 241.417969 C 178.769531 241.414062 179.6875 241.953125 184.394531 242.167969 C 191.558594 242.492188 202.558594 241.984375 202.816406 239.582031 C 202.816406 239.582031 202.320312 240.492188 196.894531 241.21875 Z M 193.507812 233.496094 C 188.910156 234.125 186.242188 234.109375 182.878906 233.859375 C 180.277344 233.667969 181.976562 232.773438 181.976562 232.773438 C 175.234375 234.359375 185.722656 236.15625 195.148438 234.203125 C 194.539062 234.050781 193.980469 233.808594 193.507812 233.496094 Z M 193.507812 233.496094 " fill-opacity="1" fill-rule="nonzero"/><path fill="#f000ff" d="M 349.320312 194.464844 L 355.320312 210.277344 C 351.121094 208.320312 348.230469 204.179688 348.230469 199.390625 C 348.230469 197.632812 348.621094 195.972656 349.320312 194.464844 Z M 369.300781 198.78125 C 369.300781 197.289062 368.746094 196.253906 368.265625 195.445312 C 367.625 194.449219 367.03125 193.601562 367.03125 192.605469 C 367.03125 191.492188 367.90625 190.457031 369.140625 190.457031 C 369.195312 190.457031 369.246094 190.464844 369.304688 190.46875 C 367.066406 188.496094 364.085938 187.289062 360.808594 187.289062 C 356.414062 187.289062 352.546875 189.457031 350.292969 192.742188 C 350.589844 192.753906 350.867188 192.761719 351.105469 192.761719 C 352.417969 192.761719 354.457031 192.605469 354.457031 192.605469 C 355.136719 192.566406 355.214844 193.527344 354.539062 193.601562 C 354.539062 193.601562 353.859375 193.675781 353.105469 193.714844 L 357.6875 206.820312 L 360.441406 198.878906 L 358.484375 193.714844 C 357.804688 193.675781 357.167969 193.601562 357.167969 193.601562 C 356.484375 193.5625 356.570312 192.566406 357.242188 192.605469 C 357.242188 192.605469 359.320312 192.761719 360.554688 192.761719 C 361.867188 192.761719 363.90625 192.605469 363.90625 192.605469 C 364.585938 192.566406 364.664062 193.527344 363.988281 193.601562 C 363.988281 193.601562 363.308594 193.675781 362.554688 193.714844 L 367.101562 206.722656 L 368.355469 202.691406 C 368.886719 201.019531 369.300781 199.816406 369.300781 198.78125 Z M 361.027344 200.449219 L 357.253906 211 C 358.382812 211.316406 359.574219 211.492188 360.808594 211.492188 C 362.273438 211.492188 363.675781 211.25 364.984375 210.804688 C 364.949219 210.753906 364.917969 210.699219 364.894531 210.640625 Z M 371.847656 193.585938 C 371.902344 193.972656 371.929688 194.382812 371.929688 194.832031 C 371.929688 196.058594 371.695312 197.433594 370.972656 199.164062 L 367.128906 209.851562 C 370.875 207.75 373.386719 203.855469 373.386719 199.390625 C 373.386719 197.289062 372.832031 195.308594 371.847656 193.585938 Z M 375.472656 199.390625 C 375.472656 207.171875 368.890625 213.496094 360.808594 213.496094 C 352.71875 213.496094 346.144531 207.164062 346.144531 199.390625 C 346.144531 191.613281 352.71875 185.289062 360.808594 185.289062 C 368.890625 185.289062 375.472656 191.613281 375.472656 199.390625 Z M 374.800781 199.390625 C 374.800781 191.96875 368.519531 185.9375 360.808594 185.9375 C 353.089844 185.9375 346.816406 191.96875 346.816406 199.390625 C 346.816406 206.8125 353.097656 212.847656 360.808594 212.847656 C 368.527344 212.847656 374.800781 206.8125 374.800781 199.390625 Z M 374.800781 199.390625 " fill-opacity="1" fill-rule="nonzero"/><path fill="#f000ff" d="M 42.902344 94.128906 C 42.398438 92.183594 41.445312 90.714844 39.40625 90.714844 L 36.78125 90.714844 L 36.78125 93.699219 C 36.78125 96.015625 34.738281 97.96875 32.410156 97.96875 L 25.417969 97.96875 C 23.507812 97.96875 21.921875 99.542969 21.921875 101.386719 L 21.921875 107.796875 C 21.921875 109.621094 23.570312 110.691406 25.417969 111.214844 C 27.628906 111.839844 29.757812 111.953125 32.410156 111.214844 C 34.171875 110.722656 35.90625 109.734375 35.90625 107.796875 L 35.90625 105.234375 L 28.917969 105.234375 L 28.917969 104.378906 L 39.40625 104.378906 C 41.445312 104.378906 42.195312 103.011719 42.902344 100.964844 C 43.636719 98.855469 43.605469 96.828125 42.902344 94.128906 Z M 32.847656 106.941406 C 33.574219 106.941406 34.164062 107.511719 34.164062 108.21875 C 34.164062 108.929688 33.574219 109.503906 32.847656 109.503906 C 32.128906 109.503906 31.53125 108.921875 31.53125 108.21875 C 31.539062 107.507812 32.128906 106.941406 32.847656 106.941406 Z M 25.097656 97.125 L 32.089844 97.125 C 34.03125 97.125 35.585938 95.582031 35.585938 93.707031 L 35.585938 87.289062 C 35.585938 85.464844 33.988281 84.097656 32.089844 83.789062 C 29.746094 83.417969 27.199219 83.4375 25.097656 83.796875 C 22.136719 84.300781 21.601562 85.351562 21.601562 87.296875 L 21.601562 89.859375 L 28.597656 89.859375 L 28.597656 90.714844 L 18.976562 90.714844 C 16.941406 90.714844 15.160156 91.890625 14.601562 94.128906 C 13.960938 96.691406 13.933594 98.289062 14.601562 100.964844 C 15.101562 102.953125 16.285156 104.378906 18.320312 104.378906 L 20.722656 104.378906 L 20.722656 101.304688 C 20.722656 99.082031 22.71875 97.125 25.097656 97.125 Z M 24.65625 88.144531 C 23.929688 88.144531 23.34375 87.574219 23.34375 86.867188 C 23.347656 86.15625 23.929688 85.582031 24.65625 85.582031 C 25.378906 85.582031 25.972656 86.164062 25.972656 86.867188 C 25.972656 87.574219 25.382812 88.144531 24.65625 88.144531 Z M 24.65625 88.144531 " fill-opacity="1" fill-rule="nonzero"/><path fill="#f000ff" d="M 112.222656 335.46875 C 111.914062 335.355469 111.601562 335.246094 111.292969 335.148438 C 111.34375 334.914062 111.390625 334.679688 111.4375 334.449219 C 112.140625 330.695312 111.675781 327.679688 110.113281 326.683594 C 108.605469 325.734375 106.148438 326.722656 103.664062 329.101562 C 103.417969 329.335938 103.175781 329.582031 102.949219 329.828125 C 102.792969 329.664062 102.632812 329.5 102.472656 329.339844 C 99.867188 326.796875 97.253906 325.726562 95.691406 326.730469 C 94.1875 327.683594 93.742188 330.523438 94.371094 334.074219 C 94.433594 334.429688 94.503906 334.773438 94.585938 335.128906 C 94.21875 335.242188 93.855469 335.367188 93.519531 335.5 C 90.460938 336.664062 88.265625 338.503906 88.265625 340.402344 C 88.265625 342.367188 90.601562 344.339844 93.78125 345.535156 C 94.039062 345.628906 94.296875 345.722656 94.5625 345.804688 C 94.476562 346.183594 94.402344 346.554688 94.332031 346.9375 C 93.730469 350.433594 94.199219 353.203125 95.699219 354.15625 C 97.246094 355.136719 99.847656 354.128906 102.378906 351.691406 C 102.582031 351.496094 102.78125 351.296875 102.980469 351.082031 C 103.234375 351.351562 103.496094 351.609375 103.761719 351.863281 C 106.210938 354.179688 108.636719 355.117188 110.128906 354.167969 C 111.675781 353.183594 112.183594 350.207031 111.527344 346.582031 C 111.476562 346.304688 111.417969 346.019531 111.355469 345.730469 C 111.539062 345.671875 111.71875 345.609375 111.894531 345.546875 C 115.199219 344.34375 117.59375 342.398438 117.59375 340.402344 C 117.59375 338.496094 115.335938 336.644531 112.222656 335.46875 Z M 104.472656 330.121094 C 106.601562 328.082031 108.589844 327.28125 109.496094 327.855469 C 110.464844 328.464844 110.835938 330.933594 110.226562 334.175781 C 110.1875 334.390625 110.148438 334.597656 110.097656 334.804688 C 108.824219 334.492188 107.535156 334.265625 106.242188 334.140625 C 105.496094 332.96875 104.683594 331.847656 103.800781 330.796875 C 104.023438 330.5625 104.242188 330.34375 104.472656 330.121094 Z M 97.84375 343.671875 C 98.136719 344.21875 98.433594 344.765625 98.75 345.300781 C 97.855469 345.195312 96.96875 345.039062 96.089844 344.828125 C 96.34375 343.921875 96.65625 342.984375 97.023438 342.027344 C 97.289062 342.582031 97.558594 343.128906 97.84375 343.671875 Z M 96.109375 336.097656 C 96.933594 335.894531 97.808594 335.730469 98.71875 335.605469 C 98.417969 336.128906 98.117188 336.664062 97.835938 337.207031 C 97.558594 337.742188 97.28125 338.289062 97.023438 338.84375 C 96.664062 337.90625 96.359375 336.984375 96.109375 336.097656 Z M 97.675781 340.433594 C 98.054688 339.566406 98.46875 338.714844 98.902344 337.878906 C 99.339844 337.042969 99.808594 336.230469 100.300781 335.429688 C 101.160156 335.359375 102.035156 335.324219 102.929688 335.324219 C 103.824219 335.324219 104.707031 335.359375 105.558594 335.429688 C 106.046875 336.222656 106.511719 337.035156 106.953125 337.867188 C 107.394531 338.699219 107.804688 339.546875 108.195312 340.410156 C 107.8125 341.277344 107.398438 342.136719 106.957031 342.980469 C 106.523438 343.816406 106.058594 344.628906 105.570312 345.433594 C 104.71875 345.503906 103.828125 345.535156 102.929688 345.535156 C 102.03125 345.535156 101.160156 345.503906 100.316406 345.445312 C 99.820312 344.648438 99.351562 343.828125 98.910156 342.992188 C 98.46875 342.152344 98.0625 341.304688 97.675781 340.433594 Z M 108.023438 343.660156 C 108.316406 343.105469 108.589844 342.542969 108.859375 341.976562 C 109.226562 342.890625 109.546875 343.816406 109.828125 344.765625 C 108.9375 344.988281 108.039062 345.15625 107.136719 345.269531 C 107.445312 344.742188 107.738281 344.199219 108.023438 343.660156 Z M 108.847656 338.84375 C 108.578125 338.289062 108.304688 337.734375 108.015625 337.191406 C 107.738281 336.65625 107.445312 336.128906 107.140625 335.605469 C 108.0625 335.730469 108.945312 335.902344 109.769531 336.109375 C 109.507812 337.042969 109.199219 337.949219 108.847656 338.84375 Z M 102.941406 331.757812 C 103.542969 332.476562 104.109375 333.234375 104.636719 334.011719 C 103.503906 333.957031 102.363281 333.957031 101.230469 334.011719 C 101.789062 333.199219 102.367188 332.445312 102.941406 331.757812 Z M 96.296875 327.898438 C 97.257812 327.28125 99.394531 328.164062 101.648438 330.355469 C 101.789062 330.492188 101.933594 330.644531 102.082031 330.796875 C 101.195312 331.847656 100.375 332.96875 99.625 334.140625 C 98.332031 334.265625 97.046875 334.484375 95.777344 334.792969 C 95.699219 334.472656 95.636719 334.144531 95.574219 333.816406 C 95.035156 330.769531 95.390625 328.472656 96.296875 327.898438 Z M 94.894531 344.496094 C 94.652344 344.421875 94.417969 344.339844 94.183594 344.25 C 92.960938 343.828125 91.578125 343.160156 90.574219 342.285156 C 89.996094 341.84375 89.605469 341.164062 89.496094 340.402344 C 89.496094 339.25 91.308594 337.777344 93.917969 336.777344 C 94.246094 336.652344 94.578125 336.539062 94.910156 336.429688 C 95.300781 337.796875 95.769531 339.136719 96.3125 340.433594 C 95.765625 341.75 95.289062 343.109375 94.894531 344.496094 Z M 101.574219 350.664062 C 100.628906 351.617188 99.535156 352.371094 98.339844 352.890625 C 97.707031 353.222656 96.972656 353.253906 96.320312 352.972656 C 95.410156 352.390625 95.03125 350.167969 95.546875 347.179688 C 95.609375 346.824219 95.679688 346.472656 95.757812 346.125 C 97.042969 346.429688 98.335938 346.636719 99.648438 346.742188 C 100.402344 347.921875 101.234375 349.046875 102.121094 350.105469 C 101.9375 350.300781 101.757812 350.488281 101.574219 350.664062 Z M 102.976562 349.136719 C 102.390625 348.445312 101.808594 347.675781 101.238281 346.851562 C 101.789062 346.875 102.359375 346.890625 102.929688 346.890625 C 103.519531 346.890625 104.097656 346.875 104.671875 346.84375 C 104.144531 347.644531 103.578125 348.40625 102.976562 349.136719 Z M 110.464844 351.023438 C 110.410156 351.792969 110.066406 352.511719 109.519531 352.996094 C 108.605469 353.574219 106.664062 352.820312 104.570312 350.84375 C 104.328125 350.617188 104.085938 350.371094 103.839844 350.117188 C 104.71875 349.054688 105.523438 347.925781 106.257812 346.742188 C 107.570312 346.625 108.875 346.402344 110.164062 346.082031 C 110.222656 346.339844 110.273438 346.597656 110.320312 346.851562 C 110.601562 348.210938 110.648438 349.628906 110.464844 351.023438 Z M 111.503906 344.257812 C 111.34375 344.3125 111.183594 344.371094 111.019531 344.421875 C 110.617188 343.046875 110.125 341.707031 109.558594 340.402344 C 110.109375 339.117188 110.570312 337.796875 110.960938 336.445312 C 111.257812 336.539062 111.546875 336.636719 111.820312 336.738281 C 114.488281 337.746094 116.363281 339.246094 116.363281 340.390625 C 116.363281 341.625 114.363281 343.21875 111.503906 344.257812 Z M 102.929688 343.3125 C 104.378906 343.3125 105.554688 342.023438 105.554688 340.429688 C 105.554688 338.835938 104.378906 337.546875 102.929688 337.546875 C 101.480469 337.546875 100.304688 338.835938 100.304688 340.429688 C 100.304688 342.023438 101.480469 343.3125 102.929688 343.3125 Z M 102.929688 343.3125 " fill-opacity="1" fill-rule="nonzero"/><path fill="#f000ff" d="M 11.699219 168.625 L 17.078125 168.625 L 14.386719 162.859375 Z M 14.386719 153.761719 L -0.277344 158.445312 L 1.96875 175.804688 L 14.386719 181.96875 L 26.808594 175.804688 L 29.054688 158.445312 Z M 23.578125 175.28125 L 20.148438 175.28125 L 18.296875 171.164062 L 10.492188 171.164062 L 8.644531 175.28125 L 5.207031 175.28125 L 14.386719 156.878906 Z M 23.578125 175.28125 " fill-opacity="1" fill-rule="nonzero"/><path fill="#f000ff" d="M 82.300781 22.125 L 77.265625 22.125 L 73.601562 28.636719 L 70.457031 22.125 L 58.9375 22.125 L 73.601562 50.332031 L 88.265625 22.125 Z M 62.582031 24.476562 L 66.105469 24.476562 L 73.601562 39.046875 L 81.089844 24.476562 L 84.613281 24.476562 L 73.601562 45.664062 Z M 62.582031 24.476562 " fill-opacity="1" fill-rule="nonzero"/><path fill="#f000ff" d="M 299.929688 354.535156 C 299.488281 354.535156 299.042969 354.433594 298.65625 354.242188 L 294.605469 352.199219 C 294.003906 351.910156 294.296875 351.808594 294.492188 351.753906 C 295.300781 351.511719 295.464844 351.460938 296.324219 351.042969 C 296.417969 350.996094 296.535156 351.011719 296.628906 351.0625 L 299.738281 352.636719 C 299.851562 352.691406 300.007812 352.691406 300.113281 352.636719 L 312.238281 346.667969 C 312.347656 346.613281 312.421875 346.503906 312.421875 346.390625 L 312.421875 334.457031 C 312.421875 334.339844 312.347656 334.234375 312.230469 334.171875 L 300.113281 328.210938 C 300 328.152344 299.851562 328.152344 299.738281 328.210938 L 287.628906 334.175781 C 287.507812 334.234375 287.4375 334.34375 287.4375 334.460938 L 287.4375 346.390625 C 287.4375 346.503906 287.507812 346.613281 287.628906 346.664062 L 290.949219 348.296875 C 292.753906 349.066406 293.859375 348.164062 293.859375 347.253906 L 293.859375 335.476562 C 293.859375 335.308594 294.015625 335.179688 294.210938 335.179688 L 295.746094 335.179688 C 295.9375 335.179688 296.101562 335.308594 296.101562 335.476562 L 296.101562 347.257812 C 296.101562 349.304688 294.789062 350.480469 292.511719 350.480469 C 291.808594 350.480469 291.257812 350.480469 289.722656 349.832031 L 286.542969 348.269531 C 285.757812 347.882812 285.269531 347.164062 285.269531 346.382812 L 285.269531 334.457031 C 285.269531 333.683594 285.757812 332.957031 286.542969 332.570312 L 298.65625 326.605469 C 299.425781 326.234375 300.441406 326.234375 301.203125 326.605469 L 313.328125 332.574219 C 314.113281 332.960938 314.601562 333.683594 314.601562 334.460938 L 314.601562 346.390625 C 314.601562 347.164062 314.113281 347.882812 313.328125 348.277344 L 301.203125 354.242188 C 300.816406 354.433594 300.375 354.535156 299.929688 354.535156 Z M 309.71875 342.773438 C 309.71875 340.542969 307.945312 339.949219 304.222656 339.527344 C 300.453125 339.101562 300.074219 338.882812 300.074219 338.132812 C 300.074219 337.511719 300.394531 336.683594 303.1875 336.683594 C 305.671875 336.683594 306.59375 337.144531 306.972656 338.578125 C 307.007812 338.710938 307.148438 338.8125 307.3125 338.8125 L 308.890625 338.8125 C 308.988281 338.8125 309.082031 338.777344 309.144531 338.714844 C 309.210938 338.65625 309.246094 338.570312 309.238281 338.488281 C 308.996094 336.019531 307.070312 334.871094 303.1875 334.871094 C 299.726562 334.871094 297.664062 336.113281 297.664062 338.203125 C 297.664062 340.460938 299.71875 341.089844 303.035156 341.371094 C 307.007812 341.699219 307.3125 342.199219 307.3125 342.863281 C 307.3125 344.015625 306.226562 344.507812 303.671875 344.507812 C 300.460938 344.507812 299.757812 343.820312 299.523438 342.460938 C 299.496094 342.316406 299.351562 342.210938 299.175781 342.210938 L 297.605469 342.210938 C 297.410156 342.210938 297.257812 342.34375 297.257812 342.503906 C 297.257812 344.246094 298.367188 346.324219 303.675781 346.324219 C 307.511719 346.316406 309.71875 345.023438 309.71875 342.773438 Z M 309.71875 342.773438 " fill-opacity="1" fill-rule="nonzero"/><path fill="#f000ff" d="M 189.535156 154.945312 L 187.691406 154.945312 L 187.691406 150.207031 L 189.535156 150.207031 Z M 206.136719 145.464844 L 206.136719 159.6875 L 189.535156 159.6875 L 189.535156 162.058594 L 182.15625 162.058594 L 182.15625 159.6875 L 172.933594 159.6875 L 172.933594 145.464844 Z M 182.15625 147.835938 L 174.777344 147.835938 L 174.777344 157.316406 L 178.46875 157.316406 L 178.46875 150.207031 L 180.3125 150.207031 L 180.3125 157.316406 L 182.15625 157.316406 Z M 191.378906 147.835938 L 184 147.835938 L 184 159.6875 L 187.691406 159.6875 L 187.691406 157.316406 L 191.378906 157.316406 Z M 204.292969 147.835938 L 193.226562 147.835938 L 193.226562 157.316406 L 196.914062 157.316406 L 196.914062 150.207031 L 198.757812 150.207031 L 198.757812 157.316406 L 200.601562 157.316406 L 200.601562 150.207031 L 202.449219 150.207031 L 202.449219 157.316406 L 204.292969 157.316406 Z M 204.292969 147.835938 " fill-opacity="1" fill-rule="nonzero"/></svg>